<svg width="24" height="24" viewBox="0 0 24 24" fill="none" xmlns="http://www.w3.org/2000/svg">
<path d="M13.5 3.75V4.53125C16.3516 5.11719 18.5 7.61719 18.5 10.625V11.3672C18.5 13.2031 19.1641 15 20.375 16.3672L20.6484 16.6797C21 17.0703 21.0781 17.5781 20.8828 18.0469C20.6875 18.4766 20.2188 18.75 19.75 18.75H4.75C4.24219 18.75 3.77344 18.4766 3.57812 18.0469C3.38281 17.5781 3.46094 17.0703 3.8125 16.6797L4.08594 16.3672C5.29688 15 6 13.2031 6 11.3672V10.625C6 7.61719 8.10938 5.11719 11 4.53125V3.75C11 3.08594 11.5469 2.5 12.25 2.5C12.9141 2.5 13.5 3.08594 13.5 3.75ZM12.25 22.5C11.5859 22.5 10.9219 22.2656 10.4531 21.7969C9.98438 21.3281 9.75 20.6641 9.75 20H14.75C14.75 20.6641 14.4766 21.3281 14.0078 21.7969C13.5391 22.2656 12.875 22.5 12.25 22.5Z" fill="#F7941E"/>
</svg>
