<svg width="24" height="24" viewBox="0 0 24 24" fill="none" xmlns="http://www.w3.org/2000/svg">
<path d="M13.5 3.75V4.45312C16.3125 4.92188 18.5 7.38281 18.5 10.3125V11.6406C18.5 13.3984 19.0859 15.1172 20.1797 16.5234L20.7656 17.2266C21 17.5391 21.0391 17.9297 20.8828 18.2422C20.7266 18.5547 20.4141 18.75 20.0625 18.75H4.4375C4.04688 18.75 3.73438 18.5547 3.57812 18.2422C3.42188 17.9297 3.46094 17.5391 3.69531 17.2266L4.28125 16.5234C5.375 15.1172 6 13.3984 6 11.6406V10.3125C6 7.38281 8.14844 4.92188 11 4.45312V3.75C11 3.08594 11.5469 2.5 12.25 2.5C12.9141 2.5 13.5 3.08594 13.5 3.75ZM11.9375 6.25C9.67188 6.25 7.875 8.08594 7.875 10.3125V11.6406C7.875 13.5156 7.32812 15.3125 6.3125 16.875H18.1484C17.1328 15.3125 16.625 13.5156 16.625 11.6406V10.3125C16.625 8.08594 14.7891 6.25 12.5625 6.25H11.9375ZM14.75 20C14.75 20.6641 14.4766 21.3281 14.0078 21.7969C13.5391 22.2656 12.875 22.5 12.25 22.5C11.5859 22.5 10.9219 22.2656 10.4531 21.7969C9.98438 21.3281 9.75 20.6641 9.75 20H14.75Z" fill="#F7941E"/>
</svg>
