<svg width="11" height="13" viewBox="0 0 11 13" fill="none" xmlns="http://www.w3.org/2000/svg">
<path d="M4.0625 2H7.4375V1.0625C7.4375 0.757812 7.67188 0.5 8 0.5C8.30469 0.5 8.5625 0.757812 8.5625 1.0625V2H9.5C10.3203 2 11 2.67969 11 3.5V11C11 11.8438 10.3203 12.5 9.5 12.5H2C1.15625 12.5 0.5 11.8438 0.5 11V3.5C0.5 2.67969 1.15625 2 2 2H2.9375V1.0625C2.9375 0.757812 3.17188 0.5 3.5 0.5C3.80469 0.5 4.0625 0.757812 4.0625 1.0625V2ZM1.625 11C1.625 11.2109 1.78906 11.375 2 11.375H9.5C9.6875 11.375 9.875 11.2109 9.875 11V5H1.625V11Z" fill="#27AAE1"/>
</svg>
